<?xml version="1.0" standalone="no"?><svg xmlns="http://www.w3.org/2000/svg" viewBox="0 0 1440 320"><path fill="#000b76" fill-opacity="1" d="M0,128L8.9,154.7C17.8,181,36,235,53,240C71.1,245,89,203,107,181.3C124.4,160,142,160,160,149.3C177.8,139,196,117,213,122.7C231.1,128,249,160,267,186.7C284.4,213,302,235,320,213.3C337.8,192,356,128,373,106.7C391.1,85,409,107,427,149.3C444.4,192,462,256,480,288C497.8,320,516,320,533,277.3C551.1,235,569,149,587,149.3C604.4,149,622,235,640,277.3C657.8,320,676,320,693,288C711.1,256,729,192,747,160C764.4,128,782,128,800,128C817.8,128,836,128,853,138.7C871.1,149,889,171,907,160C924.4,149,942,107,960,112C977.8,117,996,171,1013,170.7C1031.1,171,1049,117,1067,133.3C1084.4,149,1102,235,1120,272C1137.8,309,1156,299,1173,261.3C1191.1,224,1209,160,1227,138.7C1244.4,117,1262,139,1280,149.3C1297.8,160,1316,160,1333,154.7C1351.1,149,1369,139,1387,122.7C1404.4,107,1422,85,1431,74.7L1440,64L1440,0L1431.1,0C1422.2,0,1404,0,1387,0C1368.9,0,1351,0,1333,0C1315.6,0,1298,0,1280,0C1262.2,0,1244,0,1227,0C1208.9,0,1191,0,1173,0C1155.6,0,1138,0,1120,0C1102.2,0,1084,0,1067,0C1048.9,0,1031,0,1013,0C995.6,0,978,0,960,0C942.2,0,924,0,907,0C888.9,0,871,0,853,0C835.6,0,818,0,800,0C782.2,0,764,0,747,0C728.9,0,711,0,693,0C675.6,0,658,0,640,0C622.2,0,604,0,587,0C568.9,0,551,0,533,0C515.6,0,498,0,480,0C462.2,0,444,0,427,0C408.9,0,391,0,373,0C355.6,0,338,0,320,0C302.2,0,284,0,267,0C248.9,0,231,0,213,0C195.6,0,178,0,160,0C142.2,0,124,0,107,0C88.9,0,71,0,53,0C35.6,0,18,0,9,0L0,0Z"></path></svg>